<mxfile host="app.diagrams.net" modified="2023-01-10T04:34:20.421Z" agent="5.0 (Windows NT 10.0; Win64; x64) AppleWebKit/537.36 (KHTML, like Gecko) Chrome/108.0.0.0 Safari/537.36 Edg/108.0.1462.54" etag="GOz2pmN6-Sm5ROphsXDb" version="20.8.3" type="github">
  <diagram id="IYuIip3eOyXfyuH6mt3i" name="Page-1">
    <mxGraphModel dx="1595" dy="859" grid="1" gridSize="10" guides="1" tooltips="1" connect="1" arrows="1" fold="1" page="1" pageScale="1" pageWidth="850" pageHeight="1100" math="0" shadow="0">
      <root>
        <mxCell id="0" />
        <mxCell id="1" parent="0" />
        <mxCell id="2_6LWp1_aZbLUd6CnHVo-1" value="" style="rounded=0;whiteSpace=wrap;html=1;" parent="1" vertex="1">
          <mxGeometry x="120" y="120" width="240" height="430" as="geometry" />
        </mxCell>
        <mxCell id="2_6LWp1_aZbLUd6CnHVo-2" value="" style="rounded=0;whiteSpace=wrap;html=1;" parent="1" vertex="1">
          <mxGeometry x="140" y="140" width="200" height="180" as="geometry" />
        </mxCell>
        <mxCell id="2_6LWp1_aZbLUd6CnHVo-3" value="Instance 2" style="rounded=0;whiteSpace=wrap;html=1;" parent="1" vertex="1">
          <mxGeometry x="140" y="330" width="200" height="50" as="geometry" />
        </mxCell>
        <mxCell id="2_6LWp1_aZbLUd6CnHVo-4" value="Instance 3" style="rounded=0;whiteSpace=wrap;html=1;" parent="1" vertex="1">
          <mxGeometry x="140" y="390" width="200" height="50" as="geometry" />
        </mxCell>
        <mxCell id="2_6LWp1_aZbLUd6CnHVo-5" value="Instance N" style="rounded=0;whiteSpace=wrap;html=1;" parent="1" vertex="1">
          <mxGeometry x="140" y="480" width="200" height="50" as="geometry" />
        </mxCell>
        <mxCell id="2_6LWp1_aZbLUd6CnHVo-7" value="Client 1" style="rounded=0;whiteSpace=wrap;html=1;" parent="1" vertex="1">
          <mxGeometry x="160" y="160" width="160" height="30" as="geometry" />
        </mxCell>
        <mxCell id="2_6LWp1_aZbLUd6CnHVo-8" value="Client 2" style="rounded=0;whiteSpace=wrap;html=1;" parent="1" vertex="1">
          <mxGeometry x="160" y="210" width="160" height="30" as="geometry" />
        </mxCell>
        <mxCell id="2_6LWp1_aZbLUd6CnHVo-9" value="Client N" style="rounded=0;whiteSpace=wrap;html=1;" parent="1" vertex="1">
          <mxGeometry x="160" y="260" width="160" height="30" as="geometry" />
        </mxCell>
        <mxCell id="2_6LWp1_aZbLUd6CnHVo-10" value="Server" style="rounded=0;whiteSpace=wrap;html=1;fillColor=#e1d5e7;strokeColor=#9673a6;" parent="1" vertex="1">
          <mxGeometry x="120" y="80" width="240" height="40" as="geometry" />
        </mxCell>
        <mxCell id="2_6LWp1_aZbLUd6CnHVo-11" value="Instance 1" style="text;html=1;strokeColor=none;fillColor=none;align=center;verticalAlign=middle;whiteSpace=wrap;rounded=0;" parent="1" vertex="1">
          <mxGeometry x="160" y="290" width="160" height="30" as="geometry" />
        </mxCell>
        <mxCell id="dM3SJ2M1hShFCcMIYBTX-1" value="" style="endArrow=none;dashed=1;html=1;rounded=0;exitX=0.5;exitY=1;exitDx=0;exitDy=0;" edge="1" parent="1" source="2_6LWp1_aZbLUd6CnHVo-8" target="2_6LWp1_aZbLUd6CnHVo-9">
          <mxGeometry width="50" height="50" relative="1" as="geometry">
            <mxPoint x="400" y="430" as="sourcePoint" />
            <mxPoint x="400" y="400" as="targetPoint" />
          </mxGeometry>
        </mxCell>
        <mxCell id="dM3SJ2M1hShFCcMIYBTX-2" value="" style="endArrow=none;dashed=1;html=1;rounded=0;exitX=0.5;exitY=1;exitDx=0;exitDy=0;entryX=0.5;entryY=0;entryDx=0;entryDy=0;" edge="1" parent="1" source="2_6LWp1_aZbLUd6CnHVo-4" target="2_6LWp1_aZbLUd6CnHVo-5">
          <mxGeometry width="50" height="50" relative="1" as="geometry">
            <mxPoint x="250" y="245" as="sourcePoint" />
            <mxPoint x="250" y="270" as="targetPoint" />
          </mxGeometry>
        </mxCell>
      </root>
    </mxGraphModel>
  </diagram>
</mxfile>
